<svg xmlns="http://www.w3.org/2000/svg" width="74" height="64" viewBox="0 0 74 64" fill="none">
  <path
    d="M73.4282 43.9812C73.4282 48.15 71.8598 51.9565 69.287 54.832L70.6674 60.7206C71.2131 63.0411 68.6541 64.8435 66.6545 63.541L60.931 59.8217C59.7157 60.1106 58.45 60.2665 57.1429 60.2665L39.202 60.2665C34.703 60.2665 30.6305 58.4413 27.6863 55.497C24.7374 52.5481 22.9167 48.4756 22.9167 43.9812L36.7209 43.9812C39.3167 43.9812 41.4125 41.8854 41.4125 39.2896L41.4125 34.8732L45.829 34.8732C48.4247 34.8732 50.5206 32.7773 50.5206 30.1816C50.5206 28.8883 49.9977 27.7142 49.1447 26.8612C48.2917 26.0082 47.1222 25.4854 45.8244 25.4854L41.4079 25.4854L41.4079 20.9772C41.4079 19.6839 40.8851 18.5099 40.0321 17.6569C39.1882 16.8084 38.0142 16.281 36.7117 16.281L50.5114 16.281L57.1337 16.2765C66.1317 16.2765 73.4236 23.5684 73.4236 32.5664L73.4236 43.9766L73.4282 43.9812Z"
    fill="#E81F41"
  />
  <path
    d="M50.5159 16.2856L41.4079 16.2856L36.7163 16.2902C34.1251 16.2902 32.0247 18.3907 32.0247 20.9818L32.0247 25.3982L27.6037 25.3982C26.3104 25.3982 25.1363 25.9257 24.2833 26.7741C23.4395 27.6225 22.9075 28.7966 22.9075 30.0944C22.9075 32.6902 25.0079 34.786 27.5991 34.786L32.0201 34.786L32.0201 39.2942C32.0201 41.8899 34.1206 43.9858 36.7117 43.9858L16.2897 43.9858C14.8359 43.9858 13.4326 43.7932 12.0934 43.4401L6.10853 46.2101C4.11357 47.5034 1.55451 45.7056 2.09567 43.3896L3.43024 37.6936C1.28393 34.9374 -0.000183362 31.4703 -0.000183331 27.7005L-0.000183238 16.2902C-0.000183165 7.28765 7.29175 0.00030532 16.2897 0.000305497L34.2306 0.000305851C38.7296 0.00030594 42.8067 1.82558 45.7464 4.76987C48.6953 7.71875 50.5159 11.7821 50.5159 16.281L50.5159 16.2856Z"
    fill="#1C1F62"
  />
</svg>
