<?xml version="1.0" standalone="no"?>
<!DOCTYPE svg PUBLIC "-//W3C//DTD SVG 20010904//EN"
 "http://www.w3.org/TR/2001/REC-SVG-20010904/DTD/svg10.dtd">
<svg version="1.0" xmlns="http://www.w3.org/2000/svg"
 width="592.000000pt" height="592.000000pt" viewBox="0 0 592.000000 592.000000"
 preserveAspectRatio="xMidYMid meet">
<metadata>
Created by potrace 1.14, written by Peter Selinger 2001-2017
</metadata>
<g transform="translate(0.000000,592.000000) scale(0.100000,-0.100000)"
fill="#000000" stroke="none">
<path d="M1055 5495 c-275 -58 -478 -167 -670 -360 -99 -99 -174 -197 -231
-305 -36 -66 -83 -177 -89 -208 -2 -12 -7 -27 -11 -34 -4 -6 -16 -50 -27 -97
-19 -80 -21 -126 -23 -706 -3 -650 -2 -657 42 -825 34 -126 100 -268 183 -391
41 -62 47 -77 38 -94 -6 -11 -10 -21 -9 -23 3 -2 0 -14 -29 -137 -11 -49 -23
-99 -25 -110 -2 -11 -11 -49 -20 -85 -42 -163 -10 -257 103 -310 64 -30 126
-24 223 22 127 61 245 115 255 118 6 2 35 15 65 30 135 66 140 68 184 55 56
-17 226 -36 321 -36 6 0 62 1 125 2 63 1 123 -2 133 -6 9 -4 17 -3 17 1 0 10
208 9 217 0 3 -3 7 -34 9 -68 2 -54 12 -130 20 -163 1 -5 5 -26 8 -45 25 -139
125 -358 220 -485 85 -112 144 -174 236 -246 41 -33 80 -64 87 -69 7 -6 17
-10 23 -10 5 0 10 -4 10 -10 0 -5 6 -10 14 -10 7 0 19 -7 26 -15 7 -9 15 -13
18 -11 3 3 17 -3 31 -12 46 -32 175 -84 266 -108 52 -14 163 -35 206 -39 62
-6 1634 -6 1694 0 22 2 56 6 75 9 19 3 52 8 72 12 29 4 45 1 67 -15 16 -12 34
-21 40 -21 6 0 11 -4 11 -10 0 -5 7 -10 15 -10 8 0 15 -4 15 -10 0 -5 4 -10 9
-10 5 0 45 -25 90 -55 45 -30 84 -55 87 -55 2 0 10 -5 17 -11 25 -21 152 -101
183 -114 131 -54 295 69 280 210 -3 28 -8 61 -11 75 -4 14 -10 41 -15 60 -4
19 -20 87 -35 150 -15 63 -28 122 -30 131 -2 9 -8 33 -13 53 -10 34 -8 39 32
89 61 74 186 277 171 277 -3 0 4 15 14 32 16 30 56 146 65 193 3 11 9 41 15
66 21 94 25 194 24 719 0 547 -3 610 -28 715 -8 33 -16 69 -18 80 -2 11 -7 27
-10 35 -3 8 -18 46 -32 85 -69 186 -211 386 -369 520 -26 22 -53 45 -59 50
-12 10 -59 41 -122 81 -59 37 -184 93 -266 119 -163 52 -219 57 -582 60 -186
2 -340 5 -342 7 -2 1 -6 44 -9 94 -4 49 -9 101 -12 115 -2 13 -9 45 -14 71
-40 204 -171 447 -330 615 -57 60 -204 183 -220 183 -5 0 -15 6 -22 13 -33 33
-228 125 -310 146 -4 1 -22 7 -40 12 -18 6 -42 12 -53 14 -21 5 -65 15 -100
23 -11 3 -414 6 -895 8 l-875 3 -110 -24z m1988 -1294 c16 -6 33 -11 38 -11
17 0 102 -62 136 -98 44 -50 82 -132 89 -196 3 -30 7 -134 8 -233 l1 -178 175
-1 c191 -1 277 -9 297 -26 7 -6 13 -8 13 -4 0 8 53 -19 83 -42 119 -93 179
-239 152 -371 -17 -85 -75 -185 -128 -223 -18 -12 -38 -28 -44 -34 -12 -12
-93 -42 -131 -49 -9 -2 -107 -4 -218 -4 l-201 -1 1 -172 c1 -208 -6 -275 -39
-343 -25 -54 -104 -141 -146 -162 -89 -43 -105 -47 -194 -47 -80 0 -97 4 -156
32 -80 38 -150 110 -186 190 -23 50 -26 72 -29 189 -1 73 -5 137 -9 143 -3 5
-3 10 2 10 6 0 8 89 4 155 -1 7 -65 10 -183 10 -101 0 -205 4 -232 8 -146 25
-265 137 -304 287 -13 51 -8 148 12 206 35 105 143 206 253 237 38 11 106 15
249 16 108 0 199 3 202 6 9 9 8 285 -1 285 -5 0 -5 5 -1 11 3 6 8 39 9 73 8
176 126 306 320 351 26 6 133 -3 158 -14z"/>
</g>
</svg>
